<svg width="30" height="28" viewBox="0 0 30 28" fill="none" xmlns="http://www.w3.org/2000/svg">
<path d="M29.1087 10.4636C29.0309 10.3469 28.9531 10.2302 28.8364 10.1913C28.9531 10.0357 29.0309 9.80234 28.992 9.60785C28.9531 8.75209 28.5641 7.00167 26.6581 4.82337C24.7132 2.64508 23.0017 2.0616 22.1848 1.90601C22.0292 1.86711 21.9125 1.90601 21.7958 1.90601C21.7569 1.71152 21.6402 1.51703 21.4847 1.40033C20.8234 0.85576 19.2675 0 16.3501 0C13.4327 0 11.8768 0.894658 11.1766 1.40033C10.8266 1.67262 10.7099 2.1005 10.9043 2.48948L11.5267 3.92872L15.4165 13.3421C15.4165 13.381 15.4554 13.4199 15.4943 13.4588C15.4165 13.4199 15.2998 13.4199 15.1831 13.4199L4.95292 14.3145L3.397 14.4312C2.96912 14.4701 2.61903 14.7813 2.54124 15.2092C2.38564 16.0649 2.34675 17.8543 3.74708 20.3826C5.10852 22.9499 6.66444 23.8835 7.44241 24.2336C7.5591 24.2725 7.6758 24.3114 7.83139 24.3114C7.83139 24.3114 7.83139 24.3114 7.87029 24.3114C7.87029 24.5059 7.94809 24.7003 8.06478 24.8948C8.60935 25.5561 9.89299 26.8008 12.7326 27.4621C13.7439 27.6955 14.5997 27.7733 15.3387 27.7733C16.6613 27.7733 17.5559 27.501 18.0616 27.2676C18.1783 27.2287 18.295 27.112 18.3728 27.0342C18.5284 27.1509 18.7229 27.2676 18.9174 27.2676C18.9952 27.2676 19.073 27.2676 19.1508 27.2676C20.0843 27.2676 21.7569 26.9953 23.8963 25.4783C26.2691 23.8057 27.0471 22.172 27.3194 21.3551C27.3583 21.2384 27.3583 21.0828 27.3583 20.9661C27.5528 20.9272 27.7473 20.8494 27.9029 20.6938C28.5252 20.0715 29.5755 18.6322 29.8867 15.7538C30.2756 12.8753 29.5755 11.2027 29.1087 10.4636ZM21.8347 2.76177C21.8736 2.68397 21.9514 2.64508 21.9903 2.68397C22.7294 2.83957 24.2853 3.34524 26.0357 5.32905C27.7862 7.31286 28.1362 8.86879 28.1751 9.64675C28.1751 9.72455 28.1362 9.76344 28.0584 9.80234L27.4361 10.0357C27.3583 9.25777 26.9693 7.77964 25.3745 5.95142C23.7796 4.12321 22.3015 3.57863 21.5236 3.42304L21.8347 2.76177ZM27.475 15.4815C27.2027 17.8543 26.308 18.9823 25.919 19.3713C25.8801 19.4102 25.8413 19.4102 25.8024 19.3713L21.2513 16.7262L17.2448 14.1978L21.7958 12.6808L26.7359 11.2805C26.7748 11.2805 26.8137 11.2805 26.8526 11.3194C27.1638 11.7861 27.7473 13.1087 27.475 15.4815ZM21.2902 4.16211C21.7958 4.2399 23.1962 4.66778 24.8299 6.496C26.4247 8.28531 26.6581 9.72454 26.697 10.2302C26.697 10.2691 26.6581 10.308 26.6192 10.308L21.6014 11.9417L17.0503 13.2254L18.9563 8.82989L21.2124 4.201C21.2124 4.16211 21.2513 4.16211 21.2902 4.16211ZM11.5656 2.2172C11.5267 2.1394 11.5656 2.0616 11.6045 2.02271C12.2269 1.55593 13.6272 0.777964 16.2723 0.777964C18.9174 0.777964 20.3177 1.55593 20.9012 2.02271C20.9401 2.0616 20.979 2.1394 20.9401 2.2172L20.6678 2.83957C20.0065 2.37279 18.684 1.67262 16.2723 1.67262C13.8606 1.67262 12.4603 2.37279 11.8379 2.83957L11.5656 2.2172ZM12.188 3.65643C12.188 3.61753 12.188 3.57863 12.2269 3.53973C12.6548 3.22855 13.8995 2.45059 16.3112 2.45059C18.6451 2.45059 19.8509 3.11185 20.3566 3.53973C20.3955 3.57863 20.3955 3.61753 20.3955 3.65643L18.295 8.5187L16.1167 13.0309L12.188 3.65643ZM16.1945 13.9255C16.1945 13.9644 16.1945 13.9644 16.1945 14.0033C16.1945 14.0033 16.1556 14.0033 16.1167 14.0422C16.0778 14.0422 16.0778 14.0422 16.0389 14.0033C16.0389 13.9644 16.0389 13.9255 16 13.8867L15.9611 13.8478C16 13.8478 16.0778 13.8867 16.1167 13.8867C16.1556 13.9255 16.1556 13.9255 16.1945 13.9255ZM15.7277 15.0925L16.7002 19.7992L17.517 24.8559C17.517 24.8948 17.517 24.9337 17.4781 24.9726C17.0114 25.206 15.611 25.6339 13.2771 25.0893C10.9432 24.5448 9.93189 23.5334 9.58181 23.1055C9.54291 23.0666 9.54291 23.0277 9.58181 22.9888L12.7326 18.7489L15.7277 15.0925ZM7.94808 23.4945C7.90919 23.5334 7.83139 23.5723 7.75359 23.5334C7.20902 23.3 5.73089 22.4443 4.40835 19.9937C3.16361 17.6598 3.16361 16.0649 3.3192 15.3259C3.3192 15.2481 3.397 15.2092 3.47479 15.2092L4.17496 15.1703C4.05827 15.9483 4.09716 17.5042 5.22521 19.6047C6.39216 21.7441 7.6369 22.5998 8.37597 22.9499L7.94808 23.4945ZM5.88648 19.2546C4.75843 17.1541 4.83623 15.7149 4.91403 15.1703C4.91403 15.1314 4.95292 15.0925 4.99182 15.0925L15.1831 14.2367C15.1442 14.2756 15.1054 14.2756 15.1054 14.3145L12.1491 18.2821L8.92054 22.2887C8.88164 22.3276 8.84274 22.3276 8.80384 22.3276C8.29817 22.0942 7.05343 21.3551 5.88648 19.2546ZM17.7115 26.5675C17.167 26.8397 15.5721 27.3454 12.8493 26.7231C10.2431 26.1007 9.07613 25.0115 8.60935 24.4281C8.57046 24.3892 8.57046 24.3114 8.60935 24.2336L9.03723 23.689C9.54291 24.3114 10.7099 25.2838 13.0437 25.8284C13.9384 26.0229 14.6775 26.1007 15.3387 26.1007C16.4279 26.1007 17.167 25.8673 17.6337 25.6728L17.7504 26.373C17.8282 26.4897 17.7893 26.5675 17.7115 26.5675ZM18.5284 24.817L17.4781 19.6436L16.7002 14.9758L20.8623 17.3875L25.18 20.1493C25.2189 20.1882 25.2189 20.2271 25.2189 20.266C25.0633 20.7716 24.4798 22.0942 22.496 23.4945C20.5122 24.8559 19.1119 24.9726 18.5673 24.9337C18.5673 24.8948 18.5284 24.8948 18.5284 24.817ZM23.4685 24.8559C21.2902 26.373 19.6953 26.5286 18.9563 26.4897C18.8785 26.4897 18.8396 26.4508 18.8007 26.373L18.684 25.6728C18.7229 25.6728 18.7229 25.6728 18.7618 25.6728C19.5786 25.6728 21.0568 25.4394 22.9628 24.1169C24.9466 22.7165 25.6857 21.3551 25.919 20.616L26.5025 20.9661C26.5803 21.005 26.5803 21.0828 26.5803 21.1606C26.4247 21.7441 25.7635 23.2611 23.4685 24.8559ZM29.1476 15.676C28.8364 18.321 27.9029 19.6047 27.3583 20.1493C27.3194 20.1882 27.2416 20.2271 27.1638 20.1882L26.5803 19.8381C27.1249 19.2546 27.9807 17.971 28.2529 15.5982C28.5252 13.1865 27.9807 11.7473 27.5917 11.0471L28.2529 10.8526C28.3307 10.8137 28.4085 10.8526 28.4474 10.9304C28.8364 11.5528 29.4588 13.0309 29.1476 15.676Z" fill="#A4ACAD"/>
<path d="M17.9449 3.26746C17.167 3.26746 16.5446 3.88983 16.5446 4.66779C16.5446 5.44575 17.167 6.06813 17.9449 6.06813C18.7229 6.06813 19.3453 5.44575 19.3453 4.66779C19.3453 3.88983 18.7229 3.26746 17.9449 3.26746ZM17.9449 5.32906C17.5948 5.32906 17.3226 5.05677 17.3226 4.70669C17.3226 4.35661 17.5948 4.08432 17.9449 4.08432C18.295 4.08432 18.5673 4.35661 18.5673 4.70669C18.5673 5.05677 18.295 5.32906 17.9449 5.32906Z" fill="#A4ACAD"/>
<path d="M16.1167 6.496C15.3776 6.496 14.7942 7.07948 14.7942 7.81854C14.7942 8.55761 15.3776 9.14108 16.1167 9.14108C16.8558 9.14108 17.4392 8.55761 17.4392 7.81854C17.4392 7.07948 16.8558 6.496 16.1167 6.496ZM16.0778 8.36312C15.7666 8.36312 15.5332 8.12973 15.5332 7.81854C15.5332 7.50736 15.7666 7.27397 16.0778 7.27397C16.389 7.27397 16.6224 7.50736 16.6224 7.81854C16.6224 8.12973 16.389 8.36312 16.0778 8.36312Z" fill="#A4ACAD"/>
<path d="M23.0406 6.4571C22.6127 5.99033 21.8736 5.95143 21.4069 6.37931C21.1735 6.5738 21.0568 6.88498 21.0179 7.15727C21.0179 7.46846 21.0957 7.77964 21.2902 7.97413C21.4847 8.24642 21.7958 8.40201 22.107 8.40201C22.1459 8.40201 22.1459 8.40201 22.1848 8.40201C22.4571 8.40201 22.7294 8.28532 22.9628 8.09083C23.4296 7.66295 23.4685 6.92388 23.0406 6.4571ZM22.3793 7.58515C22.3015 7.66295 22.2237 7.70185 22.107 7.66295C21.9903 7.66295 21.9125 7.62405 21.8347 7.54625C21.7569 7.46846 21.7181 7.39066 21.757 7.27397C21.7958 7.15727 21.8347 7.04058 21.9125 7.00168C21.9903 6.92388 22.0681 6.92388 22.1459 6.92388C22.2626 6.92388 22.3404 6.96278 22.4182 7.04058C22.5738 7.19617 22.5349 7.42956 22.3793 7.58515Z" fill="#A4ACAD"/>
<path d="M26.1913 15.9872C25.9191 15.7149 25.6079 15.5204 25.2578 15.4815C24.5187 15.4037 23.8186 15.9483 23.7408 16.6873C23.663 17.4264 24.2075 18.1266 24.9466 18.2043C24.9855 18.2043 25.0633 18.2043 25.1022 18.2043C25.8024 18.2043 26.3858 17.6987 26.4636 16.9985C26.5025 16.6484 26.3858 16.2594 26.1913 15.9872ZM25.0244 17.4653C24.6743 17.4264 24.4409 17.1152 24.4798 16.804C24.5187 16.4539 24.8299 16.2205 25.1411 16.2594C25.2967 16.2594 25.4523 16.3761 25.5301 16.4928C25.6079 16.6095 25.6857 16.7651 25.6857 16.9207C25.6468 17.2708 25.3356 17.5042 25.0244 17.4653Z" fill="#A4ACAD"/>
<path d="M26.5414 12.4863C26.3858 12.2529 26.1135 12.0973 25.8024 12.0584C25.4912 12.0195 25.18 12.0973 24.9466 12.2918C24.7132 12.4863 24.5576 12.7586 24.5187 13.0698C24.4798 13.381 24.5576 13.6922 24.7521 13.9255C24.9466 14.1589 25.2189 14.3145 25.5301 14.3534C25.569 14.3534 25.6079 14.3534 25.6468 14.3534C25.919 14.3534 26.1524 14.2756 26.3469 14.12C26.5803 13.9255 26.7359 13.6533 26.7748 13.3421C26.8137 13.0309 26.7359 12.7197 26.5414 12.4863ZM25.8801 13.4977C25.8024 13.5755 25.6857 13.5755 25.6079 13.5755C25.4912 13.5755 25.4134 13.4977 25.3745 13.4199C25.2967 13.3421 25.2967 13.2254 25.2967 13.1476C25.2967 13.0309 25.3745 12.9531 25.4523 12.9142C25.5301 12.8364 25.6468 12.8364 25.7246 12.8364C25.8413 12.8364 25.919 12.9142 25.9579 12.992C25.9968 13.0698 26.0357 13.1865 26.0357 13.2643C26.0357 13.3421 25.9579 13.4588 25.8801 13.4977Z" fill="#A4ACAD"/>
<path d="M20.7067 18.2043C20.4733 17.8932 20.201 17.6987 19.8509 17.6598C19.5009 17.582 19.1508 17.6598 18.8396 17.8932C18.2561 18.321 18.1005 19.1379 18.5284 19.7603C18.7618 20.1104 19.1897 20.3049 19.6176 20.3049C19.8898 20.3049 20.1621 20.2271 20.3955 20.0715C20.7067 19.877 20.9012 19.5658 20.9401 19.2157C21.0179 18.8656 20.9401 18.5155 20.7067 18.2043ZM20.1621 19.099C20.1232 19.2546 20.0454 19.3713 19.9287 19.4491C19.6953 19.6436 19.3453 19.5658 19.1508 19.2935C18.9952 19.0601 19.0341 18.71 19.3064 18.5155C19.5398 18.3599 19.8898 18.3988 20.0843 18.6711C20.1621 18.7878 20.201 18.9434 20.1621 19.099Z" fill="#A4ACAD"/>
<path d="M15.1831 21.6274C14.872 21.5496 14.5608 21.5885 14.3274 21.783C14.0551 21.9386 13.8995 22.2109 13.8217 22.4832C13.6272 23.1055 14.0162 23.7279 14.6386 23.8835C14.7164 23.9224 14.8331 23.9224 14.9109 23.9224C15.4165 23.9224 15.9222 23.5723 16.0389 23.0277C16.1945 22.4054 15.8055 21.783 15.1831 21.6274ZM15.222 22.8721C15.1831 23.0666 14.9887 23.1833 14.7553 23.1444C14.6386 23.1055 14.5608 23.0666 14.5219 22.9888C14.483 22.911 14.5219 22.7943 14.5219 22.6776C14.5608 22.561 14.5997 22.4832 14.6775 22.4443C14.7553 22.4054 14.7942 22.4054 14.872 22.4054C14.9109 22.4054 14.9498 22.4054 14.9498 22.4054C15.1442 22.4443 15.2609 22.6387 15.222 22.8721Z" fill="#A4ACAD"/>
<path d="M8.29817 16.065C7.94809 15.4037 7.09233 15.1314 6.43106 15.5204C5.76979 15.8705 5.4975 16.7262 5.88649 17.3875C6.11987 17.8543 6.62555 18.1266 7.09233 18.1266C7.32572 18.1266 7.52021 18.0877 7.7536 17.971C8.41487 17.582 8.64826 16.7262 8.29817 16.065ZM7.36462 17.2708C7.05343 17.4264 6.70335 17.3097 6.54775 17.0374C6.39216 16.7262 6.50886 16.3761 6.78114 16.2205C7.09233 16.065 7.44241 16.1816 7.59801 16.4539C7.7536 16.7262 7.6369 17.1152 7.36462 17.2708Z" fill="#A4ACAD"/>
<path d="M11.8768 16.2205C11.7212 15.9094 11.41 15.676 11.0988 15.5593C10.7488 15.4426 10.3987 15.4815 10.0875 15.676C9.7763 15.8316 9.54292 16.1428 9.42622 16.4539C9.30953 16.804 9.34842 17.1541 9.54292 17.4653C9.69851 17.8154 9.9708 18.0488 10.3209 18.1266C10.4376 18.1655 10.5932 18.1655 10.7099 18.1655C10.9432 18.1655 11.1377 18.1266 11.3322 18.0099C11.6434 17.8543 11.8768 17.5431 11.9935 17.2319C12.1102 16.8818 12.0713 16.5317 11.8768 16.2205ZM10.9432 17.3486C10.8266 17.4264 10.671 17.4264 10.5154 17.3875C10.3598 17.3486 10.2431 17.2319 10.2042 17.1152C10.1653 16.9985 10.1264 16.8429 10.1653 16.6873C10.2042 16.5317 10.3209 16.415 10.4376 16.3761C10.5543 16.2983 10.7099 16.2983 10.8655 16.3372C11.021 16.3761 11.1377 16.4928 11.1766 16.6095C11.3322 16.8818 11.2155 17.2319 10.9432 17.3486Z" fill="#A4ACAD"/>
<path d="M13.316 10.7748L7.05343 2.68398L6.08098 1.43924C5.80869 1.08915 5.38081 0.972459 4.99183 1.16695C4.21386 1.51703 2.69683 2.45059 1.2965 4.97897C-0.103835 7.50735 -0.0649366 9.33557 0.051758 10.1913C0.129554 10.6192 0.44074 10.9304 0.86862 10.9693L2.42455 11.086L12.5381 12.1751C12.6159 12.1751 12.6548 12.1751 12.6548 12.1751C12.966 12.1751 13.2382 12.0195 13.3938 11.7473C13.5494 11.4361 13.5494 11.086 13.316 10.7748ZM1.64658 10.2691L0.985315 10.1913C0.907518 10.1913 0.86862 10.1135 0.829722 10.0746C0.713027 9.33557 0.713027 7.70184 1.95777 5.36795C3.24141 3.03406 4.60285 2.1783 5.26412 1.90602C5.34191 1.86712 5.41971 1.90602 5.45861 1.94491L5.88649 2.48949C5.14742 2.83957 3.90268 3.69533 2.73573 5.79583C1.56879 7.93523 1.52989 9.45226 1.64658 10.2691ZM12.7715 11.3583C12.7326 11.3972 12.7326 11.3972 12.6937 11.3972L2.58014 10.308C2.50234 10.308 2.46345 10.2691 2.46345 10.2302C2.38565 9.68565 2.30785 8.24642 3.4748 6.14592C4.64174 4.04542 5.88649 3.34525 6.35326 3.11186C6.39216 3.11186 6.43106 3.11186 6.46996 3.15076L12.7715 11.2416C12.8104 11.2805 12.8104 11.3194 12.7715 11.3583Z" fill="#A4ACAD"/>
<path d="M7.52021 5.36796C7.40352 5.01787 7.17013 4.70669 6.85894 4.55109C6.54776 4.3566 6.15878 4.31771 5.80869 4.4344C5.45861 4.55109 5.14742 4.78448 4.99183 5.09567C4.79734 5.40685 4.75844 5.79584 4.87513 6.14592C4.99183 6.496 5.22522 6.80719 5.5364 7.00168C5.7309 7.11838 5.96428 7.15727 6.19767 7.15727C6.70335 7.15727 7.17013 6.88499 7.40352 6.41821C7.59801 6.10702 7.63691 5.71804 7.52021 5.36796ZM6.70335 6.06812C6.54776 6.37931 6.15878 6.45711 5.88649 6.30151C5.7309 6.22372 5.6531 6.10702 5.6142 5.95143C5.5753 5.79584 5.6142 5.64024 5.692 5.48465C5.76979 5.32906 5.88649 5.25126 6.04208 5.21236C6.08098 5.21236 6.15878 5.17347 6.19767 5.17347C6.31437 5.17347 6.39216 5.21236 6.46996 5.25126C6.62555 5.32906 6.70335 5.44575 6.74225 5.60135C6.78115 5.75694 6.78115 5.91253 6.70335 6.06812Z" fill="#A4ACAD"/>
<path d="M8.14259 8.12972C7.59801 7.74074 6.89784 7.93523 6.58666 8.51871C6.43106 8.79099 6.39217 9.10218 6.50886 9.41336C6.58666 9.72455 6.78115 9.95794 7.05344 10.1135C7.20903 10.1913 7.40352 10.2691 7.59801 10.2691C7.7147 10.2691 7.8314 10.2691 7.9092 10.2302C8.22038 10.1524 8.45377 9.95794 8.60936 9.68565C8.92055 9.14108 8.72606 8.44091 8.14259 8.12972ZM7.94809 9.21887C7.8314 9.41336 7.63691 9.45226 7.44242 9.37447C7.36462 9.33557 7.28682 9.25777 7.24793 9.14108C7.20903 9.02438 7.24793 8.94659 7.28682 8.86879C7.32572 8.79099 7.40352 8.7132 7.52021 8.6743C7.52021 8.7132 7.55911 8.6743 7.59801 8.6743C7.67581 8.6743 7.7147 8.6743 7.7925 8.7132C7.98699 8.82989 8.02589 9.02438 7.94809 9.21887Z" fill="#A4ACAD"/>
<path d="M4.83624 8.6743L4.36946 7.70184C4.29166 7.50735 4.05827 7.42955 3.86378 7.50735C3.66929 7.58515 3.5915 7.81854 3.66929 8.01303L4.13607 8.98548C4.21387 9.14107 4.33056 9.21887 4.48615 9.21887C4.52505 9.21887 4.60285 9.21887 4.64175 9.17997C4.83624 9.10218 4.91403 8.86879 4.83624 8.6743Z" fill="#A4ACAD"/>
<path d="M15.1054 5.52354L14.6386 4.55108C14.5608 4.35659 14.3274 4.2788 14.1329 4.35659C13.9384 4.43439 13.8606 4.66778 13.9384 4.86227L14.4052 5.83473C14.483 5.99032 14.5997 6.06811 14.7553 6.06811C14.7942 6.06811 14.872 6.06811 14.9109 6.02922C15.1054 5.95142 15.2221 5.71803 15.1054 5.52354Z" fill="#A4ACAD"/>
<path d="M21.9514 10.3858L21.4847 9.41336C21.4069 9.21887 21.1735 9.14107 20.979 9.21887C20.7845 9.29666 20.7067 9.53005 20.7845 9.72455L21.2513 10.697C21.3291 10.8526 21.4458 10.9304 21.6014 10.9304C21.6403 10.9304 21.7181 10.9304 21.757 10.8915C21.9514 10.8137 22.0292 10.5803 21.9514 10.3858Z" fill="#A4ACAD"/>
<path d="M12.6159 23.0666L12.1491 22.0942C12.0713 21.8997 11.8379 21.8219 11.6434 21.8997C11.4489 21.9775 11.3711 22.2109 11.4489 22.4054L11.9157 23.3778C11.9935 23.5334 12.1102 23.6112 12.2658 23.6112C12.3047 23.6112 12.3825 23.6112 12.4214 23.5723C12.6159 23.4945 12.6937 23.2611 12.6159 23.0666Z" fill="#A4ACAD"/>
<path d="M20.59 22.2109L19.5009 22.0164C19.3064 21.9775 19.073 22.1331 19.0341 22.3276C18.9952 22.5221 19.1508 22.7554 19.3453 22.7943L20.4344 22.9888C20.4733 22.9888 20.4733 22.9888 20.5122 22.9888C20.7067 22.9888 20.8623 22.8721 20.9012 22.6776C20.979 22.4443 20.8234 22.2498 20.59 22.2109Z" fill="#A4ACAD"/>
<path d="M22.3793 14.9369L21.2902 14.7424C21.0957 14.7035 20.8623 14.8591 20.8234 15.0536C20.7845 15.2481 20.9401 15.4815 21.1346 15.5204L22.2237 15.7149C22.2626 15.7149 22.2626 15.7149 22.3015 15.7149C22.496 15.7149 22.6516 15.5982 22.6905 15.4037C22.7294 15.2092 22.5738 14.9758 22.3793 14.9369Z" fill="#A4ACAD"/>
<path d="M25.0633 8.86878L23.9741 8.67429C23.7796 8.63539 23.5463 8.79098 23.5074 8.98547C23.4685 9.21886 23.6241 9.41336 23.8185 9.45225L24.9077 9.64674C24.9466 9.64674 24.9466 9.64674 24.9855 9.64674C25.18 9.64674 25.3356 9.53005 25.3745 9.33556C25.4134 9.14107 25.2578 8.90768 25.0633 8.86878Z" fill="#A4ACAD"/>
<path d="M15.1054 19.6825L14.6386 18.71C14.5608 18.5155 14.3274 18.4377 14.1329 18.5155C13.9384 18.5933 13.8606 18.8267 13.9384 19.0212L14.4052 19.9937C14.483 20.1493 14.5997 20.2271 14.7553 20.2271C14.7942 20.2271 14.872 20.227 14.9109 20.1882C15.1054 20.1104 15.1832 19.877 15.1054 19.6825Z" fill="#A4ACAD"/>
<path d="M9.07614 19.1768C8.95944 19.0212 8.68716 18.9823 8.53157 19.1379L7.67581 19.8381C7.52021 19.9548 7.48131 20.2271 7.63691 20.3827C7.7147 20.4605 7.8314 20.5382 7.94809 20.5382C8.02589 20.5382 8.10369 20.4994 8.18148 20.4605L9.03724 19.7603C9.19283 19.6047 9.23173 19.3713 9.07614 19.1768Z" fill="#A4ACAD"/>
<path d="M19.812 10.9693C19.6953 10.8137 19.4231 10.7748 19.2675 10.9304L18.4117 11.5917C18.2561 11.7473 18.2172 11.9806 18.3728 12.1362C18.4506 12.214 18.5673 12.2918 18.684 12.2918C18.7618 12.2918 18.8396 12.2529 18.9174 12.214L19.7731 11.5139C19.9287 11.3972 19.9676 11.1249 19.812 10.9693Z" fill="#A4ACAD"/>
<path d="M23.274 20.3438C23.1573 20.1882 22.885 20.1493 22.7294 20.3049L21.8736 21.005C21.718 21.1217 21.6791 21.394 21.8347 21.5496C21.9125 21.6274 22.0292 21.6663 22.1459 21.6663C22.2237 21.6663 22.3015 21.6274 22.3793 21.5885L23.2351 20.8883C23.3907 20.7716 23.4296 20.4994 23.274 20.3438Z" fill="#A4ACAD"/>
</svg>
