<svg width="28" height="30" viewBox="0 0 28 30" fill="none" xmlns="http://www.w3.org/2000/svg">
<path d="M26.6499 14.9684C26.5325 14.7281 26.5325 14.4526 26.6499 14.2125L27.7382 11.986C28.3442 10.7464 27.8641 9.26883 26.6452 8.62213L24.4561 7.46061C24.2199 7.33534 24.058 7.11239 24.0118 6.84914L23.5837 4.40818C23.3453 3.04912 22.0881 2.13587 20.7222 2.32913L18.2684 2.67622C18.0036 2.7136 17.7417 2.62846 17.5496 2.4426L15.7685 0.719587C14.7768 -0.239834 13.2231 -0.239891 12.2315 0.719587L10.4503 2.44277C10.2581 2.62868 9.99624 2.71366 9.73145 2.67639L7.27773 2.3293C5.91132 2.13592 4.65462 3.04929 4.41622 4.40835L3.98809 6.84919C3.94187 7.1125 3.77995 7.3354 3.54383 7.46073L1.35473 8.62225C0.135872 9.26889 -0.344238 10.7466 0.261713 11.9862L1.35 14.2126C1.4674 14.4528 1.4674 14.7283 1.35 14.9685L0.261656 17.1949C-0.344295 18.4345 0.135815 19.9121 1.35467 20.5588L3.54377 21.7203C3.77995 21.8456 3.94187 22.0685 3.98809 22.3318L4.41622 24.7727C4.63325 26.0099 5.69412 26.8776 6.91337 26.8775C7.03346 26.8775 7.15531 26.869 7.27779 26.8517L9.73151 26.5046C9.99613 26.4671 10.2582 26.5524 10.4504 26.7382L12.2315 28.4613C12.7274 28.941 13.3636 29.1808 14 29.1808C14.6362 29.1807 15.2727 28.9409 15.7684 28.4613L17.5496 26.7382C17.7418 26.5524 18.0037 26.4675 18.2684 26.5046L20.7222 26.8517C22.0887 27.045 23.3453 26.1317 23.5837 24.7727L24.0119 22.3318C24.0581 22.0685 24.22 21.8456 24.4561 21.7203L26.6452 20.5588C27.8641 19.9121 28.3442 18.4345 27.7382 17.1948L26.6499 14.9684ZM25.8564 19.072L23.6673 20.2335C22.9693 20.6039 22.4907 21.2626 22.3542 22.0409L21.926 24.4818C21.8454 24.9416 21.4203 25.2505 20.9579 25.1852L18.5042 24.8381C17.7217 24.7273 16.9473 24.9791 16.3794 25.5285L14.5983 27.2515C14.2628 27.576 13.7372 27.576 13.4016 27.2515L11.6205 25.5284C11.1405 25.0641 10.513 24.8125 9.85792 24.8125C9.73789 24.8125 9.6169 24.8209 9.49573 24.8381L7.04201 25.1852C6.58002 25.2505 6.15457 24.9416 6.07387 24.4818L5.64568 22.0408C5.50912 21.2625 5.03049 20.6037 4.3325 20.2334L2.1434 19.0719C1.73099 18.8531 1.56856 18.3532 1.77357 17.9338L2.86191 15.7074C3.20888 14.9975 3.20888 14.1833 2.86191 13.4734L1.77357 11.2469C1.56856 10.8275 1.73099 10.3277 2.1434 10.1089L4.3325 8.94734C5.03044 8.57694 5.50912 7.91821 5.64562 7.13991L6.07375 4.69902C6.15445 4.23919 6.57951 3.93029 7.04189 3.99561L9.49562 4.34269C10.2778 4.45343 11.0524 4.20169 11.6204 3.65234L13.4015 1.92932C13.737 1.6048 14.2626 1.6048 14.5982 1.92932L16.3793 3.65234C16.9472 4.20175 17.7217 4.45343 18.5041 4.34269L20.9578 3.99561C21.4198 3.93024 21.8453 4.23919 21.9259 4.69902L22.3541 7.13997C22.4906 7.91827 22.9692 8.57705 23.6672 8.94734L25.8563 10.1089C26.2687 10.3277 26.4312 10.8275 26.2262 11.2469L25.1378 13.4733C24.7908 14.1832 24.7908 14.9975 25.1378 15.7073L26.2262 17.9337C26.4312 18.3532 26.2688 18.8532 25.8564 19.072Z" fill="#A4ACAD"/>
<path d="M20.1486 8.44166C19.82 8.11303 19.2871 8.11303 18.9585 8.44166L7.85119 19.549C7.52257 19.8777 7.52257 20.4105 7.85119 20.7391C8.0155 20.9034 8.23088 20.9856 8.4462 20.9856C8.66152 20.9856 8.87695 20.9035 9.04121 20.7391L20.1485 9.63179C20.4773 9.30311 20.4773 8.77034 20.1486 8.44166Z" fill="#A4ACAD"/>
<path d="M10.6339 7.01685C8.93252 7.01685 7.54833 8.40104 7.54833 10.1024C7.54833 11.8038 8.93252 13.1879 10.6339 13.1879C12.3352 13.1879 13.7194 11.8038 13.7194 10.1024C13.7194 8.40104 12.3352 7.01685 10.6339 7.01685ZM10.6339 11.5049C9.86054 11.5049 9.23139 10.8757 9.23139 10.1023C9.23139 9.329 9.86054 8.69985 10.6339 8.69985C11.4072 8.69985 12.0364 9.329 12.0364 10.1023C12.0364 10.8757 11.4072 11.5049 10.6339 11.5049Z" fill="#A4ACAD"/>
<path d="M17.3659 15.9929C15.6645 15.9929 14.2804 17.3771 14.2804 19.0785C14.2804 20.7798 15.6645 22.164 17.3659 22.164C19.0673 22.164 20.4515 20.7798 20.4515 19.0785C20.4515 17.3771 19.0673 15.9929 17.3659 15.9929ZM17.3659 20.481C16.5926 20.481 15.9634 19.8518 15.9634 19.0785C15.9634 18.3051 16.5925 17.676 17.3659 17.676C18.1392 17.676 18.7684 18.3051 18.7684 19.0785C18.7684 19.8518 18.1392 20.481 17.3659 20.481Z" fill="#A4ACAD"/>
</svg>
