<svg width="50" height="15" viewBox="0 0 50 15" fill="none" xmlns="http://www.w3.org/2000/svg">
<rect width="50" height="15" rx="7.5" fill="#EB5757"/>
<path d="M13.292 9.734C13.1527 10.46 12.841 11.032 12.357 11.45C11.873 11.8607 11.279 12.066 10.575 12.066C9.783 12.066 9.13033 11.8093 8.617 11.296C8.27233 10.9513 8.056 10.5737 7.968 10.163C7.88 9.75233 7.836 9.05933 7.836 8.084C7.836 7.10867 7.88 6.41567 7.968 6.005C8.056 5.59433 8.27233 5.21667 8.617 4.872C9.13033 4.35867 9.783 4.102 10.575 4.102C11.2863 4.102 11.8803 4.30733 12.357 4.718C12.841 5.12867 13.1527 5.70067 13.292 6.434H12.434C12.3313 5.94267 12.115 5.55767 11.785 5.279C11.4623 4.993 11.059 4.85 10.575 4.85C10.0397 4.85 9.58867 5.03333 9.222 5.4C8.98733 5.642 8.837 5.939 8.771 6.291C8.705 6.63567 8.672 7.23333 8.672 8.084C8.672 8.93467 8.705 9.536 8.771 9.888C8.837 10.2327 8.98733 10.526 9.222 10.768C9.58867 11.1347 10.0397 11.318 10.575 11.318C11.059 11.318 11.466 11.1787 11.796 10.9C12.1333 10.614 12.3533 10.2253 12.456 9.734H13.292ZM16.0169 12H15.1809V4.168H16.0169V12ZM20.7359 12H19.6249L16.0279 7.908L19.3829 4.168H20.4389L17.0069 7.886L20.7359 12ZM26.8031 6.016C26.8911 6.42667 26.9351 7.116 26.9351 8.084C26.9351 9.052 26.8911 9.74133 26.8031 10.152C26.7151 10.5627 26.4951 10.944 26.1431 11.296C25.6298 11.8093 24.9808 12.066 24.1961 12.066C23.4041 12.066 22.7514 11.8093 22.2381 11.296C21.8934 10.9513 21.6771 10.5737 21.5891 10.163C21.5011 9.75233 21.4571 9.05933 21.4571 8.084C21.4571 7.10867 21.5011 6.41567 21.5891 6.005C21.6771 5.59433 21.8934 5.21667 22.2381 4.872C22.7514 4.35867 23.4041 4.102 24.1961 4.102C24.9808 4.102 25.6298 4.35867 26.1431 4.872C26.4951 5.224 26.7151 5.60533 26.8031 6.016ZM26.0001 9.888C26.0661 9.536 26.0991 8.93467 26.0991 8.084C26.0991 7.23333 26.0661 6.63567 26.0001 6.291C25.9341 5.939 25.7838 5.642 25.5491 5.4C25.1824 5.03333 24.7314 4.85 24.1961 4.85C23.6608 4.85 23.2098 5.03333 22.8431 5.4C22.6084 5.642 22.4581 5.939 22.3921 6.291C22.3261 6.63567 22.2931 7.23333 22.2931 8.084C22.2931 8.93467 22.3261 9.536 22.3921 9.888C22.4581 10.2327 22.6084 10.526 22.8431 10.768C23.2098 11.1347 23.6608 11.318 24.1961 11.318C24.7314 11.318 25.1824 11.1347 25.5491 10.768C25.7838 10.526 25.9341 10.2327 26.0001 9.888ZM34.2434 6.467C34.2434 7.16367 34.0161 7.72467 33.5614 8.15C33.1141 8.568 32.5347 8.777 31.8234 8.777H29.7444V12H28.9084V4.168H31.8234C32.5421 4.168 33.1251 4.38067 33.5724 4.806C34.0197 5.224 34.2434 5.77767 34.2434 6.467ZM32.9564 7.633C33.2571 7.36167 33.4074 6.973 33.4074 6.467C33.4074 5.961 33.2571 5.576 32.9564 5.312C32.6631 5.048 32.2634 4.916 31.7574 4.916H29.7444V8.029H31.7574C32.2634 8.029 32.6631 7.897 32.9564 7.633ZM40.8861 6.016C40.9741 6.42667 41.0181 7.116 41.0181 8.084C41.0181 9.052 40.9741 9.74133 40.8861 10.152C40.7981 10.5627 40.5781 10.944 40.2261 11.296C39.7128 11.8093 39.0638 12.066 38.2791 12.066C37.4871 12.066 36.8344 11.8093 36.3211 11.296C35.9764 10.9513 35.7601 10.5737 35.6721 10.163C35.5841 9.75233 35.5401 9.05933 35.5401 8.084C35.5401 7.10867 35.5841 6.41567 35.6721 6.005C35.7601 5.59433 35.9764 5.21667 36.3211 4.872C36.8344 4.35867 37.4871 4.102 38.2791 4.102C39.0638 4.102 39.7128 4.35867 40.2261 4.872C40.5781 5.224 40.7981 5.60533 40.8861 6.016ZM40.0831 9.888C40.1491 9.536 40.1821 8.93467 40.1821 8.084C40.1821 7.23333 40.1491 6.63567 40.0831 6.291C40.0171 5.939 39.8668 5.642 39.6321 5.4C39.2654 5.03333 38.8144 4.85 38.2791 4.85C37.7438 4.85 37.2928 5.03333 36.9261 5.4C36.6914 5.642 36.5411 5.939 36.4751 6.291C36.4091 6.63567 36.3761 7.23333 36.3761 8.084C36.3761 8.93467 36.4091 9.536 36.4751 9.888C36.5411 10.2327 36.6914 10.526 36.9261 10.768C37.2928 11.1347 37.7438 11.318 38.2791 11.318C38.8144 11.318 39.2654 11.1347 39.6321 10.768C39.8668 10.526 40.0171 10.2327 40.0831 9.888Z" fill="white"/>
</svg>
